<svg width="20" height="20" viewBox="0 0 20 20" fill="none" xmlns="http://www.w3.org/2000/svg">
<path d="M8.35891 7.47406C8.11483 7.22998 7.7191 7.22998 7.47503 7.47406C7.23095 7.71814 7.23095 8.11387 7.47503 8.35794L9.11643 9.99935L7.47504 11.6407C7.23097 11.8848 7.23097 12.2805 7.47504 12.5246C7.71912 12.7687 8.11485 12.7687 8.35893 12.5246L10.0003 10.8832L11.6417 12.5246C11.8858 12.7687 12.2815 12.7687 12.5256 12.5246C12.7696 12.2805 12.7696 11.8848 12.5256 11.6407L10.8842 9.99935L12.5256 8.35796C12.7697 8.11388 12.7697 7.71816 12.5256 7.47408C12.2815 7.23 11.8858 7.23 11.6417 7.47408L10.0003 9.11546L8.35891 7.47406Z" fill="#1C274C"/>
<path fill-rule="evenodd" clip-rule="evenodd" d="M10.0003 1.04102C5.05277 1.04102 1.04199 5.0518 1.04199 9.99935C1.04199 14.9469 5.05277 18.9577 10.0003 18.9577C14.9479 18.9577 18.9587 14.9469 18.9587 9.99935C18.9587 5.0518 14.9479 1.04102 10.0003 1.04102ZM2.29199 9.99935C2.29199 5.74215 5.74313 2.29102 10.0003 2.29102C14.2575 2.29102 17.7087 5.74215 17.7087 9.99935C17.7087 14.2565 14.2575 17.7077 10.0003 17.7077C5.74313 17.7077 2.29199 14.2565 2.29199 9.99935Z" fill="#1C274C"/>
</svg>
