<?xml version="1.0" encoding="utf-8"?>
<!-- Generator: Adobe Illustrator 22.1.0, SVG Export Plug-In . SVG Version: 6.00 Build 0)  -->
<!DOCTYPE svg PUBLIC "-//W3C//DTD SVG 1.1//EN" "http://www.w3.org/Graphics/SVG/1.1/DTD/svg11.dtd">
<svg version="1.1" id="Layer_1" xmlns="http://www.w3.org/2000/svg" xmlns:xlink="http://www.w3.org/1999/xlink" x="0px" y="0px"
	 viewBox="0 0 283.3 344.9" style="enable-background:new 0 0 283.3 344.9;" xml:space="preserve">
<style type="text/css">
	.st0{fill:#191919;}
	.st1{fill:#00B67A;}
	.st2{fill:#005128;}
</style>
<g id="Type">
	<g>
		<path class="st0" d="M6.1,279.8h37.1v6.9H28.6v38.9h-8v-38.9H6.1L6.1,279.8L6.1,279.8z M41.6,292.4h6.8v6.4h0.1
			c0.2-0.9,0.6-1.8,1.3-2.6c0.6-0.8,1.4-1.6,2.2-2.3c0.9-0.7,1.8-1.3,2.9-1.7c1.1-0.4,2.2-0.6,3.3-0.6c0.8,0,1.5,0,1.8,0.1
			c0.3,0,0.6,0.1,1,0.1v7c-0.5-0.1-1-0.2-1.6-0.2c-0.5-0.1-1.1-0.1-1.6-0.1c-1.2,0-2.4,0.3-3.5,0.7c-1.1,0.5-2,1.2-2.8,2.2
			c-0.8,1-1.5,2.1-1.9,3.6s-0.7,3-0.7,4.9v15.8h-7.3L41.6,292.4L41.6,292.4z M94.6,325.5h-7.2v-4.6h-0.1c-0.9,1.7-2.2,3-4,4
			c-1.8,1-3.6,1.5-5.4,1.5c-4.4,0-7.5-1.1-9.5-3.2c-1.9-2.2-2.9-5.4-2.9-9.8v-21h7.3v20.3c0,2.9,0.5,5,1.7,6.2
			c1.1,1.2,2.7,1.8,4.7,1.8c1.6,0,2.8-0.2,3.8-0.7c1-0.5,1.9-1.1,2.5-1.9c0.6-0.8,1.1-1.7,1.4-2.8c0.3-1.1,0.4-2.3,0.4-3.6v-19.2
			h7.3V325.5z M107,314.9c0.2,2.1,1,3.6,2.4,4.5c1.4,0.8,3.1,1.3,5.1,1.3c0.7,0,1.5-0.1,2.3-0.2c0.9-0.1,1.7-0.3,2.5-0.6
			c0.8-0.3,1.4-0.7,1.9-1.3c0.5-0.6,0.7-1.3,0.7-2.3c0-0.9-0.4-1.7-1-2.3c-0.6-0.6-1.5-1.1-2.5-1.5c-1-0.4-2.1-0.7-3.4-0.9
			c-1.3-0.3-2.6-0.5-3.9-0.8c-1.4-0.3-2.7-0.7-3.9-1.1c-1.3-0.4-2.4-1-3.4-1.7c-1-0.7-1.8-1.6-2.4-2.8c-0.6-1.1-0.9-2.5-0.9-4.2
			c0-1.8,0.5-3.3,1.3-4.5c0.9-1.2,2-2.2,3.3-2.9c1.4-0.7,2.8-1.3,4.5-1.6c1.6-0.3,3.2-0.5,4.7-0.5c1.7,0,3.4,0.2,4.9,0.5
			c1.6,0.4,3,0.9,4.2,1.8c1.3,0.8,2.3,1.9,3.1,3.2c0.8,1.3,1.4,2.9,1.6,4.7h-7.6c-0.4-1.7-1.1-2.9-2.4-3.5c-1.3-0.6-2.7-0.9-4.3-0.9
			c-0.5,0-1.1,0-1.8,0.1s-1.4,0.3-2,0.5c-0.6,0.2-1.1,0.6-1.6,1c-0.4,0.5-0.6,1-0.6,1.8c0,0.9,0.3,1.6,0.9,2.2
			c0.6,0.5,1.4,1,2.4,1.4c1,0.4,2.1,0.7,3.4,0.9s2.6,0.5,4,0.8c1.3,0.3,2.6,0.7,3.9,1.1c1.3,0.4,2.4,1,3.4,1.7
			c1,0.7,1.8,1.6,2.4,2.7c0.6,1.1,0.9,2.5,0.9,4.1c0,2-0.5,3.6-1.4,5c-0.9,1.4-2.1,2.5-3.5,3.3c-1.4,0.8-3,1.5-4.8,1.9
			c-1.7,0.4-3.5,0.6-5.2,0.6c-2.1,0-4-0.2-5.8-0.7s-3.3-1.2-4.6-2.1c-1.3-1-2.3-2.2-3.1-3.6c-0.7-1.4-1.1-3.1-1.2-5.1L107,314.9
			L107,314.9z M131.1,292.4h5.5v-10h7.3v10h6.6v5.5H144v17.7c0,0.8,0,1.4,0.1,2c0.1,0.5,0.2,1,0.5,1.4c0.2,0.4,0.6,0.7,1.1,0.9
			c0.5,0.2,1.1,0.3,1.9,0.3c0.5,0,1,0,1.6,0c0.5,0,1-0.1,1.6-0.2v5.7c-0.8,0.1-1.6,0.2-2.4,0.3c-0.8,0.1-1.6,0.1-2.4,0.1
			c-1.9,0-3.5-0.2-4.7-0.5c-1.2-0.4-2.1-0.9-2.7-1.6c-0.7-0.7-1.1-1.6-1.4-2.6c-0.2-1.1-0.4-2.3-0.4-3.7v-19.5h-5.5L131.1,292.4
			L131.1,292.4z M155.7,292.4h6.9v4.5h0.1c1-1.9,2.5-3.3,4.3-4.1c1.8-0.8,3.8-1.3,6-1.3c2.6,0,4.9,0.5,6.8,1.4
			c1.9,0.9,3.6,2.2,4.8,3.8c1.3,1.6,2.2,3.5,2.9,5.6c0.6,2.1,1,4.4,1,6.8c0,2.2-0.3,4.4-0.9,6.5c-0.6,2.1-1.5,3.9-2.6,5.6
			s-2.6,2.9-4.5,3.8s-3.9,1.5-6.4,1.5c-1.1,0-2.1-0.1-3.2-0.3c-1.1-0.2-2.1-0.5-3.1-0.9c-1-0.4-1.9-1-2.7-1.6
			c-0.8-0.7-1.5-1.5-2.1-2.3H163v16.5h-7.3V292.4z M181.2,309c0-1.5-0.2-2.9-0.6-4.4c-0.4-1.4-1-2.6-1.7-3.7c-0.8-1.1-1.7-2-2.9-2.6
			c-1.2-0.6-2.5-1-4-1c-3.1,0-5.4,1.1-6.9,3.2c-1.6,2.1-2.3,5-2.3,8.5c0,1.7,0.2,3.2,0.6,4.7c0.4,1.4,1,2.6,1.8,3.7
			c0.8,1,1.8,1.8,2.9,2.4c1.1,0.6,2.5,0.9,3.9,0.9c1.7,0,3.1-0.4,4.2-1s2.1-1.6,2.8-2.6c0.7-1.1,1.3-2.3,1.6-3.7
			C181.1,311.9,181.2,310.5,181.2,309z M194.1,279.8h7.3v6.9h-7.3V279.8z M194.1,292.4h7.3v33.1h-7.3V292.4z M208,279.8h7.3v45.8
			H208V279.8z M237.7,326.4c-2.6,0-5-0.5-7.1-1.3c-2.1-0.9-3.8-2.1-5.3-3.6c-1.4-1.6-2.5-3.4-3.3-5.5s-1.1-4.5-1.1-7
			c0-2.5,0.4-4.8,1.1-7c0.7-2.1,1.8-4,3.3-5.5s3.2-2.7,5.3-3.6c2.1-0.9,4.4-1.3,7.1-1.3s5,0.5,7.1,1.3c2.1,0.9,3.8,2.1,5.3,3.6
			c1.4,1.6,2.5,3.4,3.3,5.5c0.7,2.1,1.1,4.5,1.1,7c0,2.6-0.4,4.9-1.1,7c-0.7,2.1-1.8,4-3.3,5.5c-1.4,1.6-3.2,2.7-5.3,3.6
			C242.7,326,240.3,326.4,237.7,326.4z M237.7,320.7c1.6,0,3-0.4,4.2-1c1.2-0.7,2.2-1.6,2.9-2.7c0.8-1.1,1.3-2.4,1.7-3.7
			c0.4-1.4,0.5-2.8,0.5-4.3c0-1.4-0.2-2.8-0.5-4.2s-0.9-2.6-1.7-3.7c-0.8-1.1-1.7-2-2.9-2.6c-1.2-0.7-2.6-1-4.2-1
			c-1.6,0-3,0.4-4.2,1c-1.2,0.7-2.2,1.6-2.9,2.6c-0.8,1.1-1.3,2.3-1.7,3.7c-0.4,1.4-0.5,2.8-0.5,4.2c0,1.5,0.2,2.9,0.5,4.3
			c0.4,1.4,0.9,2.6,1.7,3.7c0.8,1.1,1.7,2,2.9,2.7C234.6,320.3,236,320.7,237.7,320.7z M256.5,292.4h5.5v-10h7.3v10h6.6v5.5h-6.6
			v17.7c0,0.8,0,1.4,0.1,2c0.1,0.5,0.2,1,0.5,1.4c0.2,0.4,0.6,0.7,1.1,0.9c0.5,0.2,1.1,0.3,1.9,0.3c0.5,0,1,0,1.6,0
			c0.5,0,1-0.1,1.6-0.2v5.7c-0.8,0.1-1.6,0.2-2.4,0.3c-0.8,0.1-1.6,0.1-2.4,0.1c-1.9,0-3.5-0.2-4.7-0.5s-2.1-0.9-2.7-1.6
			c-0.7-0.7-1.1-1.6-1.4-2.6c-0.2-1.1-0.4-2.3-0.4-3.7v-19.5h-5.5L256.5,292.4L256.5,292.4z"/>
	</g>
</g>
<g id="Star">
	<polygon class="st1" points="276.8,104.1 173.2,104.1 141.2,5.5 109.1,104.1 5.5,104 89.4,165 57.3,263.5 141.2,202.6 225,263.5 
		193,165 276.8,104.1 276.8,104.1 	"/>
	<polygon class="st2" points="200.2,187.3 193,165 141.2,202.6 	"/>
</g>
</svg>
